<svg width="80" height="64" viewBox="0 0 80 64" fill="none" xmlns="http://www.w3.org/2000/svg">
<path d="M62.3158 8.04322L62.3499 9.04189C48.0958 10.081 36.8693 14.4905 28.2018 21.7534C19.6343 28.9324 13.532 38.9288 9.4928 51.3025C22.2086 56.1925 31.529 56.9972 38.6802 55.2505C45.9012 53.4867 50.9882 49.1022 55.1648 43.5155C58.4049 39.1814 61.0727 34.1609 63.7619 29.1001C64.5516 27.6139 65.3432 26.1242 66.1516 24.6474C69.6966 18.1719 73.5583 11.964 78.9803 7.61725M62.3158 8.04322L79.2931 8.00736M62.3158 8.04322C43.1251 7.95655 28.2943 12.4038 18.0382 21.6002C8.00238 30.599 2.4231 44.0761 1.35736 62.0756C-0.153261 50.4907 0.257074 39.9523 3.19064 30.7727C8.18505 15.1448 20.1999 6.29442 34.4045 2.58527C48.6241 -1.12779 65.0089 0.324611 78.6152 5.30328M62.3158 8.04322L78.787 4.83375M78.9803 7.61725L79.2931 8.00736M78.9803 7.61725C78.9803 7.61727 78.9803 7.6173 78.9803 7.61732L79.2931 8.00736M78.9803 7.61725C79.8168 6.94627 79.607 5.66633 78.6152 5.30328M79.2931 8.00736C80.4277 7.09735 80.1514 5.3332 78.787 4.83375M78.6152 5.30328C78.6152 5.30329 78.6152 5.3033 78.6152 5.3033L78.787 4.83375M78.6152 5.30328L78.787 4.83375M56.6252 9.15734C58.4738 9.07246 60.3692 9.03444 62.3113 9.04321L62.3135 8.54321M56.6252 9.15734L56.5777 8.65903C58.4233 8.39223 60.3228 8.18701 62.2772 8.04454L62.3135 8.54321M56.6252 9.15734C58.4663 8.8906 60.3621 8.68547 62.3135 8.54321M56.6252 9.15734L62.3135 8.54321" fill="#588157" stroke="white"/>
</svg>
