<svg width="38" height="38" viewBox="0 0 38 38" fill="none" xmlns="http://www.w3.org/2000/svg">
<path d="M33.6043 15.1063C33.6043 14.8481 33.5017 14.6004 33.3191 14.4178C33.1365 14.2353 32.8889 14.1327 32.6307 14.1327C32.3725 14.1327 32.1248 14.2353 31.9422 14.4178C31.7596 14.6004 31.6571 14.8481 31.6571 15.1063H33.6043ZM6.34295 15.1063C6.34295 14.8481 6.24037 14.6004 6.05778 14.4178C5.87519 14.2353 5.62755 14.1327 5.36933 14.1327C5.11111 14.1327 4.86346 14.2353 4.68087 14.4178C4.49829 14.6004 4.39571 14.8481 4.39571 15.1063H6.34295ZM35.8358 19.6902C36.0187 19.873 36.2666 19.9757 36.5252 19.9757C36.7837 19.9757 37.0317 19.873 37.2145 19.6902C37.3973 19.5074 37.5 19.2594 37.5 19.0009C37.5 18.7423 37.3973 18.4944 37.2145 18.3115L35.8358 19.6902ZM19 1.47538L19.6893 0.786043C19.5989 0.695371 19.4914 0.623433 19.3732 0.57435C19.2549 0.525266 19.1281 0.5 19 0.5C18.8719 0.5 18.7451 0.525266 18.6268 0.57435C18.5086 0.623433 18.4011 0.695371 18.3107 0.786043L19 1.47538ZM0.785527 18.3115C0.602707 18.4944 0.5 18.7423 0.5 19.0009C0.5 19.2594 0.602707 19.5074 0.785527 19.6902C0.968346 19.873 1.2163 19.9757 1.47485 19.9757C1.7334 19.9757 1.98135 19.873 2.16417 19.6902L0.785527 18.3115ZM9.26381 37.5H28.7362V35.5527H9.26381V37.5ZM33.6043 32.6318V15.1063H31.6571V32.6318H33.6043ZM6.34295 32.6318V15.1063H4.39571V32.6318H6.34295ZM37.2145 18.3115L19.6893 0.786043L18.3107 2.16472L35.8358 19.6902L37.2145 18.3115ZM18.3107 0.786043L0.785527 18.3115L2.16417 19.6902L19.6893 2.16472L18.3107 0.786043ZM28.7362 37.5C30.0273 37.5 31.2655 36.9871 32.1785 36.0741C33.0914 35.1612 33.6043 33.9229 33.6043 32.6318H31.6571C31.6571 33.4065 31.3493 34.1494 30.8016 34.6972C30.2538 35.245 29.5109 35.5527 28.7362 35.5527V37.5ZM9.26381 35.5527C8.48915 35.5527 7.74621 35.245 7.19845 34.6972C6.65068 34.1494 6.34295 33.4065 6.34295 32.6318H4.39571C4.39571 33.9229 4.9086 35.1612 5.82154 36.0741C6.73449 36.9871 7.97271 37.5 9.26381 37.5V35.5527Z" fill="#5F0EAF"/>
</svg>
