<svg width="40" height="40" viewBox="0 0 40 40" fill="none" xmlns="http://www.w3.org/2000/svg">
<path d="M15 25V30C15 32.7614 12.7614 35 10 35C7.23858 35 5 32.7614 5 30C5 27.2386 7.23858 25 10 25H15ZM15 25H25M15 25V15M25 25V30C25 32.7614 27.2386 35 30 35C32.7614 35 35 32.7614 35 30C35 27.2386 32.7614 25 30 25H25ZM25 25V15M25 15H15M25 15V10C25 7.23858 27.2386 5 30 5C32.7614 5 35 7.23858 35 10C35 12.7614 32.7614 15 30 15H25ZM15 15V10C15 7.23858 12.7614 5 10 5C7.23858 5 5 7.23858 5 10C5 12.7614 7.23858 15 10 15H15Z" stroke="#5F0EAF" stroke-width="2" stroke-linecap="round" stroke-linejoin="round"/>
</svg>
