<svg width="44" height="44" viewBox="0 0 44 44" fill="none" xmlns="http://www.w3.org/2000/svg">
<path d="M20.899 3.85092L4.04605 20.7038C3.70236 21.0476 3.50928 21.5139 3.50928 22C3.50928 22.4861 3.70236 22.9524 4.04605 23.2962L20.8999 40.15C21.2437 40.4937 21.7099 40.6868 22.1961 40.6868C22.6822 40.6868 23.1484 40.4937 23.4922 40.15L40.3451 23.2971C40.6888 22.9533 40.8819 22.4871 40.8819 22.0009C40.8819 21.5148 40.6888 21.0486 40.3451 20.7048L23.4913 3.85001C23.1475 3.50631 22.6813 3.31323 22.1951 3.31323C21.709 3.31323 21.2428 3.50631 20.899 3.85001V3.85092Z" stroke="#5F0EAF" stroke-width="3" stroke-linejoin="round"/>
<path d="M16.5 22H27.5M22 16.5V27.5" stroke="#5F0EAF" stroke-width="3" stroke-linecap="round"/>
</svg>
