<svg width="44" height="44" viewBox="0 0 44 44" fill="none" xmlns="http://www.w3.org/2000/svg">
<path d="M35.75 8.25V13.75H8.25V8.25H35.75ZM35.75 5.5H8.25C7.52065 5.5 6.82118 5.78973 6.30546 6.30546C5.78973 6.82118 5.5 7.52065 5.5 8.25V13.75C5.5 14.4793 5.78973 15.1788 6.30546 15.6945C6.82118 16.2103 7.52065 16.5 8.25 16.5H35.75C36.4793 16.5 37.1788 16.2103 37.6945 15.6945C38.2103 15.1788 38.5 14.4793 38.5 13.75V8.25C38.5 7.52065 38.2103 6.82118 37.6945 6.30546C37.1788 5.78973 36.4793 5.5 35.75 5.5ZM13.75 22V35.75H8.25V22H13.75ZM13.75 19.25H8.25C7.52065 19.25 6.82118 19.5397 6.30546 20.0555C5.78973 20.5712 5.5 21.2707 5.5 22V35.75C5.5 36.4793 5.78973 37.1788 6.30546 37.6945C6.82118 38.2103 7.52065 38.5 8.25 38.5H13.75C14.4793 38.5 15.1788 38.2103 15.6945 37.6945C16.2103 37.1788 16.5 36.4793 16.5 35.75V22C16.5 21.2707 16.2103 20.5712 15.6945 20.0555C15.1788 19.5397 14.4793 19.25 13.75 19.25ZM35.75 22V35.75H22V22H35.75ZM35.75 19.25H22C21.2707 19.25 20.5712 19.5397 20.0555 20.0555C19.5397 20.5712 19.25 21.2707 19.25 22V35.75C19.25 36.4793 19.5397 37.1788 20.0555 37.6945C20.5712 38.2103 21.2707 38.5 22 38.5H35.75C36.4793 38.5 37.1788 38.2103 37.6945 37.6945C38.2103 37.1788 38.5 36.4793 38.5 35.75V22C38.5 21.2707 38.2103 20.5712 37.6945 20.0555C37.1788 19.5397 36.4793 19.25 35.75 19.25Z" fill="#5F0EAF"/>
</svg>
