<svg width="136" height="136" viewBox="0 0 136 136" fill="none" xmlns="http://www.w3.org/2000/svg">
<path d="M63.1 72.8938L59.6404 74.0913C59.5315 74.1291 59.4586 74.2312 59.4586 74.3464V78.2326L58.8587 78.2529L58.3849 78.2277L58.7602 73.9365L63.0721 72.8542L63.1 72.8938Z" fill="#FEDBA5"/>
<path d="M60.387 74.6594L60.6916 78.1438L60.1557 78.209L59.7286 78.2234V74.3462L63.5095 73.0381L63.5379 73.0714L60.5301 74.416C60.4351 74.4583 60.378 74.5559 60.387 74.6594Z" fill="#FEDBA5"/>
<path d="M62.6324 72.6542L58.6873 73.6447C58.5631 73.6757 58.4722 73.7819 58.4614 73.9093L58.0847 78.2113L57.4192 78.1753L56.8967 78.1015L57.7279 73.3877L62.6054 72.6074L62.6324 72.6542Z" fill="#FEDBA5"/>
<path d="M61.2437 74.8675L61.7905 77.9675L61.3148 78.0679L60.9332 78.1142L60.629 74.6384L63.9163 73.1687L63.9442 73.1966L61.3531 74.638C61.2716 74.6834 61.2275 74.7757 61.2437 74.8675Z" fill="#FEDBA5"/>
<path d="M62.7414 75.0317L63.6135 77.4275L63.2481 77.5746L62.9502 77.6655L62.2185 74.9354L64.6341 73.3005L64.6602 73.319L62.7959 74.8337C62.7374 74.8809 62.7153 74.9606 62.7414 75.0317Z" fill="#FEDBA5"/>
<path d="M63.3839 75.016L64.3537 77.0959L64.0378 77.2561L63.7777 77.3609L62.9078 74.9705L64.945 73.3154L64.9702 73.3298L63.4172 74.8337C63.3686 74.8814 63.3551 74.9543 63.3839 75.016Z" fill="#FEDBA5"/>
<path d="M63.9586 74.9519L64.9914 76.7407L64.7209 76.9094L64.4959 77.0237L63.5284 74.9488L65.2254 73.3049L65.2488 73.3162L63.9748 74.7863C63.9348 74.8327 63.928 74.8993 63.9586 74.9519Z" fill="#FEDBA5"/>
<path d="M62.0281 74.9862L62.7612 77.7231L62.3427 77.8504L62.0043 77.922L61.4589 74.8291L64.2907 73.2537L64.3182 73.2766L62.1078 74.7724C62.0385 74.8192 62.0061 74.9052 62.0281 74.9862Z" fill="#FEDBA5"/>
<path d="M71.1388 72.2511L70.4021 69.5029L70.8184 69.5911L71.3773 72.7596L67.2238 75.3489L71.0668 72.4594C71.1311 72.4108 71.1595 72.3285 71.1388 72.2511Z" fill="#FEDBA5"/>
<path d="M71.5929 72.7215L71.0439 69.6084L71.4957 69.7461L71.8075 73.3074L66.9592 75.7716L71.493 72.9451C71.5686 72.8979 71.6082 72.8093 71.5929 72.7215Z" fill="#FEDBA5"/>
<path d="M65.5354 76.3719L65.3059 76.5442L65.1133 76.6644L64.0833 74.8801L65.4756 73.2732L65.4976 73.2813L64.4703 74.6992C64.4383 74.7438 64.4379 74.8041 64.4694 74.8491L65.5354 76.3719Z" fill="#FEDBA5"/>
<path d="M70.6461 72.0568C70.7001 72.0082 70.719 71.9321 70.6942 71.8642L69.8185 69.458L70.1983 69.5044L70.948 72.3016L67.4272 74.9489L70.6461 72.0568Z" fill="#FEDBA5"/>
<path d="M72.2305 69.984V73.9562L66.6257 76.2143L71.9177 73.5246C72.0059 73.4796 72.0581 73.3856 72.0496 73.2866L71.7436 69.7878L72.2305 69.984Z" fill="#FEDBA5"/>
<path d="M74.7518 71.3404L73.3415 76.6036L65.1133 77.6053L73.0801 75.9205C73.2133 75.8926 73.3159 75.7859 73.3397 75.6523L74.1763 70.9075L74.7518 71.3404Z" fill="#FEDBA5"/>
<path d="M73.0206 70.3183L72.6359 74.7148L66.2135 76.6714L72.3312 74.2068C72.4338 74.1658 72.5009 74.0664 72.5009 73.9561V70.0537L73.0206 70.3183Z" fill="#FEDBA5"/>
<path d="M73.8626 70.7643L73.0112 75.5937L65.7126 77.1372L72.7232 75.0019C72.8402 74.9659 72.9239 74.8629 72.9347 74.7405L73.3127 70.4214L73.8626 70.7643Z" fill="#FEDBA5"/>
<path d="M68.7997 70.9988C68.8168 70.9592 68.8078 70.9137 68.7777 70.8836L67.7085 69.8148L67.9236 69.7446L69.0225 71.0546L67.7989 73.35L68.7997 70.9988Z" fill="#FEDBA5"/>
<path d="M69.125 71.1096C69.1475 71.0677 69.1421 71.0164 69.1115 70.9804L68.032 69.6934L68.2763 69.6367L69.3662 71.1928L67.7894 73.6152L69.125 71.1096Z" fill="#FEDBA5"/>
<path d="M69.846 71.4667C69.882 71.4208 69.8865 71.3573 69.8572 71.3065L68.8204 69.5105L69.13 69.4939L70.1214 71.6197L67.6851 74.227L69.846 71.4667Z" fill="#FEDBA5"/>
<path d="M69.4747 71.2635C69.5035 71.2194 69.5021 71.1622 69.472 71.119L68.4014 69.5899L68.6777 69.5508L69.7334 71.3791L67.7534 73.9077L69.4747 71.2635Z" fill="#FEDBA5"/>
<path d="M70.2384 71.7287C70.2825 71.681 70.2937 71.6113 70.2663 71.5523L69.2925 69.4639L69.6367 69.4756L70.5282 71.9249L67.5789 74.5745L70.2384 71.7287Z" fill="#FEDBA5"/>
<path d="M75.6807 72.0634L73.6103 77.7523L64.4055 78.0646L73.3871 76.9711C73.5369 76.9526 73.6611 76.8451 73.7003 76.6988L75.0858 71.5283L75.6807 72.0634Z" fill="#FEDBA5"/>
<path d="M76.6387 72.9545L73.7956 79.0511L63.5765 78.5052L73.6241 78.1646C73.792 78.1587 73.9396 78.0516 73.9972 77.8937L76.0312 72.3047L76.6387 72.9545Z" fill="#FEDBA5"/>
<path d="M78.5859 75.3206L73.8222 82.1237L61.5151 79.2689L73.8037 81.0091C74.0094 81.0379 74.2114 80.9393 74.3154 80.7598L77.9869 74.4004L78.5859 75.3206Z" fill="#FEDBA5"/>
<path d="M62.1383 72.3447L57.6752 73.0584C57.5348 73.0809 57.4241 73.1898 57.3998 73.3298L56.5664 78.0548L55.8329 77.9508L55.2623 77.8185L56.6384 72.6813L62.1127 72.2903L62.1383 72.3447Z" fill="#FEDBA5"/>
<path d="M77.6121 74.0322L73.8753 80.5055L62.6172 78.9116L73.7713 79.5074C73.9576 79.5173 74.1313 79.4133 74.2101 79.2441L77.0032 73.2546L77.6121 74.0322Z" fill="#FEDBA5"/>
<path d="M68.4996 70.9254C68.5117 70.8889 68.5 70.8489 68.4708 70.8241L67.5402 70.0434L67.5978 69.8773L67.6153 69.8701L68.7034 70.9582L67.7868 73.1119L68.4996 70.9254Z" fill="#FEDBA5"/>
<path d="M67.4835 73.7042L67.4556 73.8244L67.425 73.9175L66.5916 73.6142L66.606 72.6989L66.6154 72.6953L66.6694 73.4473C66.6712 73.4711 66.6874 73.4909 66.7104 73.4972L67.4835 73.7042Z" fill="#FEDBA5"/>
<path d="M67.4055 73.9755L67.3628 74.106L67.3205 74.2059L66.4272 73.7897L66.5321 72.7781L66.5424 72.7754L66.5294 73.6124C66.5289 73.6389 66.5451 73.6628 66.5699 73.6718L67.4055 73.9755Z" fill="#FEDBA5"/>
<path d="M58.4916 67.1382L58.4696 67.2615L49.9704 63.1323C49.7031 63.0027 49.3827 63.0567 49.1726 63.2669L42.0797 70.3597L40.9479 69.3022L40.1289 68.391L48.647 61.2437L58.4916 67.1382Z" fill="#FEDBA5"/>
<path d="M57.588 58.7531L57.4661 58.9272L47.3766 46.5068C47.0589 46.1162 46.5288 45.9695 46.0559 46.1418L30.093 51.9518L28.3322 47.5809L46.6971 42.6602L57.588 58.7531Z" fill="#FEDBA5"/>
<path d="M67.5312 73.454L67.5159 73.5643L67.4961 73.6498L66.7248 73.4432L66.6663 72.6215L66.6744 72.6179L66.7815 73.2875C66.7846 73.3087 66.8013 73.3253 66.822 73.3289L67.5312 73.454Z" fill="#FEDBA5"/>
<path d="M66.9426 74.917L66.8395 75.075L66.7477 75.192L65.7123 74.323L66.21 73.0203H66.2253L65.9107 74.125C65.9004 74.1597 65.9139 74.197 65.9436 74.2177L66.9426 74.917Z" fill="#FEDBA5"/>
<path d="M67.1415 74.5835L67.0618 74.7329L66.9885 74.8454L65.9922 74.1475L66.3364 72.9401L66.3499 72.9392L66.1542 73.9544C66.1479 73.9864 66.1627 74.0183 66.1911 74.035L67.1415 74.5835Z" fill="#FEDBA5"/>
<path d="M66.6896 75.2661L66.5609 75.4308L66.4475 75.5518L65.3855 74.4898L66.0627 73.0957L66.0798 73.0971L65.624 74.2896C65.61 74.3269 65.6208 74.3692 65.6514 74.3953L66.6896 75.2661Z" fill="#FEDBA5"/>
<path d="M67.2936 74.2697L67.2337 74.4101L67.177 74.5163L66.2289 73.9691L66.4426 72.8594L66.4548 72.8572L66.3589 73.7828C66.3558 73.8121 66.3715 73.84 66.3981 73.8521L67.2936 74.2697Z" fill="#FEDBA5"/>
<path d="M66.3765 75.6283L66.2177 75.7984L66.0809 75.9213L65.0081 74.6428L65.8928 73.165L65.9112 73.1682L65.2916 74.4439C65.2722 74.4844 65.2803 74.5321 65.3118 74.5636L66.3765 75.6283Z" fill="#FEDBA5"/>
<path d="M65.9939 75.9991L65.8022 76.1715L65.6389 76.2943L64.5751 74.7756L65.6974 73.2253L65.7176 73.2312L64.9081 74.583C64.8829 74.6257 64.8869 74.6797 64.9189 74.7175L65.9939 75.9991Z" fill="#FEDBA5"/>
<path d="M79.5385 76.841L73.6071 83.9096L60.261 79.5581L73.6944 82.6739C73.9189 82.7261 74.1525 82.6366 74.2848 82.448L78.9648 75.7646L79.5385 76.841Z" fill="#FEDBA5"/>
<path d="M67.267 72.0919L67.0389 72.2517L66.8287 72.0991L66.8305 72.0942L67.0101 72.2017C67.0164 72.2053 67.0245 72.2049 67.0303 72.1999L67.2225 72.0388L67.2486 72.0676L67.267 72.0919Z" fill="#FEDBA5"/>
<path d="M82.8905 97.1833L82.3042 99.9553L61.1933 103.678L43.9408 76.0054L63.194 101.61C63.5158 102.038 64.0653 102.227 64.5828 102.089L82.8905 97.1833Z" fill="#FEDBA5"/>
<path d="M67.5545 73.2259L67.5496 73.3258L67.5383 73.4041L66.831 73.2794L66.7135 72.5473L66.7207 72.5432L66.8692 73.1354C66.8741 73.1539 66.8899 73.1678 66.9092 73.1692L67.5545 73.2259Z" fill="#FEDBA5"/>
<path d="M57.7693 64.359L57.7162 64.5048L48.268 57.6625C47.9706 57.447 47.5696 57.4438 47.269 57.6544L37.1247 64.7577L35.9758 63.2295L35.1753 61.9456L47.0638 55.0818L57.7693 64.359Z" fill="#FEDBA5"/>
<path d="M97.2289 29.3838L85.5883 84.4246L92.0917 31.0038C92.0957 30.9714 92.0984 30.939 92.1002 30.907C93.7004 30.3819 95.414 29.8671 97.2289 29.3838Z" fill="#FEDBA5"/>
<path d="M82.9473 88.7089L68.7844 95.3131L51.4144 79.0825L69.8032 93.4794C70.1101 93.7201 70.5331 93.7498 70.8711 93.5545L82.837 86.6461L82.9473 88.7089Z" fill="#FEDBA5"/>
<path d="M82.5729 85.694L70.3927 92.7261L53.5465 79.5366L71.1622 91.0022C71.4565 91.1939 71.8381 91.1876 72.1257 90.986L82.3123 83.853L82.5729 85.694Z" fill="#FEDBA5"/>
<path d="M84.6051 81.6461L86.2458 33.2401C86.2481 33.1762 86.2449 33.1127 86.2368 33.0502C87.5913 32.5025 89.0925 31.9342 90.726 31.3699L84.6051 81.6461Z" fill="#FEDBA5"/>
<path d="M82.0009 83.0204L71.632 90.2807L55.4932 79.7764L72.1868 88.6747C72.4658 88.8232 72.8069 88.7876 73.049 88.5842L81.6229 81.3901L82.0009 83.0204Z" fill="#FEDBA5"/>
<path d="M85.0541 33.5381L83.5052 79.2311L81.1792 35.7026C81.172 35.5725 81.1414 35.447 81.0901 35.3309C82.1638 34.8089 83.494 34.1955 85.0541 33.5381Z" fill="#FEDBA5"/>
<path d="M67.1248 71.8542L66.9803 71.6611L66.9884 71.6355L67.1248 71.8542Z" fill="#FEDBA5"/>
<path d="M67.1887 71.8943L67.0028 71.596L67.0168 71.5559L67.1887 71.8943Z" fill="#FEDBA5"/>
<path d="M67.2112 72.0262L67.019 72.1873L66.8363 72.0775L66.8386 72.0712L66.9893 72.1446C66.9952 72.1477 67.0024 72.1464 67.0073 72.1414L67.1671 71.9817L67.1927 72.0055L67.2112 72.0262Z" fill="#FEDBA5"/>
<path d="M67.2548 71.9438L67.0334 71.5082L67.0546 71.4465L67.2548 71.9438Z" fill="#FEDBA5"/>
<path d="M67.3237 72.0064L67.0748 71.3881L67.1068 71.2954L67.3237 72.0064Z" fill="#FEDBA5"/>
<path d="M67.0092 71.8012L66.9507 71.7467L66.9534 71.7395L67.0092 71.8012Z" fill="#FEDBA5"/>
<path d="M67.101 71.9257L66.9709 72.0814L66.8503 72.0355L66.8535 72.0265L66.9408 72.0517C66.9462 72.0531 66.9516 72.0513 66.9547 72.0468L67.06 71.8965L67.0834 71.9122L67.101 71.9257Z" fill="#FEDBA5"/>
<path d="M67.1554 71.9708L66.9961 72.1306L66.8435 72.0563L66.8462 72.0487L66.9659 72.0946C66.9718 72.0968 66.9781 72.095 66.9821 72.0905L67.1126 71.9348L67.1374 71.9542L67.1554 71.9708Z" fill="#FEDBA5"/>
<path d="M67.0496 71.8894L66.9448 72.0388L66.8579 72.0141L66.8615 72.0042L66.916 72.0145C66.9205 72.0154 66.9254 72.0132 66.9277 72.0091L67.0105 71.8665L67.0325 71.8786L67.0496 71.8894Z" fill="#FEDBA5"/>
<path d="M66.9538 71.8398L66.8913 71.9735L66.8728 71.9721L66.9219 71.8281L66.9385 71.8331L66.9538 71.8398Z" fill="#FEDBA5"/>
<path d="M66.9997 71.8611L66.9174 72.0033L66.8647 71.9934L66.8688 71.9817L66.8895 71.9839C66.894 71.9839 66.898 71.9821 66.8998 71.9781L66.9628 71.8435L66.984 71.8525L66.9997 71.8611Z" fill="#FEDBA5"/>
<path d="M79.8823 73.8886L73.4117 54.0418L74.5574 50.9287L79.8823 73.8886Z" fill="#FEDBA5"/>
<path d="M78.6629 72.6475L72.1743 57.4037L72.9794 55.2158L78.6629 72.6475Z" fill="#FEDBA5"/>
<path d="M82.3299 77.1527L77.4893 42.963L80.1209 35.8125L82.3299 77.1527Z" fill="#FEDBA5"/>
<path d="M81.1131 75.3817L75.0997 49.4554L76.7913 44.8591L81.1131 75.3817Z" fill="#FEDBA5"/>
<path d="M58.4686 53.9709L58.2828 54.1563L48.6784 36.8925C48.3765 36.3493 47.7631 36.0573 47.1511 36.1653L25.2865 40.0209L22.9893 34.3176L48.6771 32.0698L58.4686 53.9709Z" fill="#FEDBA5"/>
<path d="M113.011 26.636L87.0076 91.1853L106.367 27.63C106.388 27.5639 106.403 27.4968 106.415 27.4298C108.533 27.0927 110.736 26.8209 113.011 26.636Z" fill="#FEDBA5"/>
<path d="M80.9925 106.119L79.6852 109.364H53.2207L38.1772 72.0208L56.0967 107.279C56.3964 107.868 57.0237 108.216 57.682 108.158L80.9925 106.119Z" fill="#FEDBA5"/>
<path d="M81.2782 80.668L72.5514 87.9909L57.2577 79.8391L72.9226 86.5077C73.1845 86.6188 73.4878 86.5603 73.689 86.3587L80.8111 79.2366L81.2782 80.668Z" fill="#FEDBA5"/>
<path d="M57.9011 56.4687L57.749 56.6496L47.7838 41.9247C47.4701 41.4612 46.8977 41.2479 46.3573 41.3923L27.838 46.3549L25.8431 41.4027L47.4044 37.6011L57.9011 56.4687Z" fill="#FEDBA5"/>
<path d="M77.4721 71.6291L71.241 59.9395L71.8228 58.3586L77.4721 71.6291Z" fill="#FEDBA5"/>
<path d="M80.4457 78.6156L73.1958 85.8655L58.8448 79.7563L73.4122 84.5061C73.6557 84.5857 73.923 84.5092 74.0877 84.313L79.9147 77.3682L80.4457 78.6156Z" fill="#FEDBA5"/>
<path d="M57.4867 60.8257L57.3913 60.9913L47.3707 50.6467C47.0553 50.3214 46.5688 50.2314 46.158 50.4231L32.3016 56.8842L31.2319 54.78L30.5344 53.0479L46.4599 47.2515L57.4867 60.8257Z" fill="#FEDBA5"/>
<path d="M104.644 27.73L86.4077 87.5957L98.78 29.0948C98.7881 29.0561 98.7949 29.0179 98.7998 28.9792C100.655 28.5193 102.607 28.0963 104.644 27.73Z" fill="#FEDBA5"/>
<path d="M67.3934 72.0815L67.132 71.2224L67.181 71.0789L67.3934 72.0815Z" fill="#FEDBA5"/>
<path d="M57.5586 62.6918L57.4857 62.8475L47.6902 54.3592C47.3819 54.0919 46.9386 54.0496 46.5854 54.2534L34.6689 61.1335L33.5448 59.3308L32.7834 57.8323L46.607 51.3865L57.5586 62.6918Z" fill="#FEDBA5"/>
<path d="M82.1859 101.457L81.2688 104.469L57.5407 106.545L41.1243 74.2437L59.9559 104.449C60.2709 104.954 60.8604 105.217 61.4463 105.114L82.1859 101.457Z" fill="#FEDBA5"/>
<path d="M67.065 71.824L66.9633 71.7106L66.9687 71.6948L67.065 71.824Z" fill="#FEDBA5"/>
<path d="M73.2376 69.3144L69.1444 65.6366L69.3298 65.1326L73.2376 69.3144Z" fill="#FEDBA5"/>
<path d="M72.3462 69.0675L68.8492 66.4381L68.9914 66.0525L72.3462 69.0675Z" fill="#FEDBA5"/>
<path d="M71.5276 68.9153L68.6075 67.0951L68.716 66.8008L71.5276 68.9153Z" fill="#FEDBA5"/>
<path d="M76.3241 70.8106L70.5214 61.8948L70.9502 60.7297L76.3241 70.8106Z" fill="#FEDBA5"/>
<path d="M70.781 68.8433L68.4077 67.6373L68.4896 67.415L70.781 68.8433Z" fill="#FEDBA5"/>
<path d="M74.1998 69.6749L69.5067 64.652L69.7502 63.9905L74.1998 69.6749Z" fill="#FEDBA5"/>
<path d="M70.1074 68.8375L68.2426 68.0865L68.3038 67.9209L70.1074 68.8375Z" fill="#FEDBA5"/>
<path d="M68.0699 69.2451L67.8192 69.237L67.8269 69.2158L68.0699 69.2451Z" fill="#FEDBA5"/>
<path d="M68.4874 69.0977L67.897 69.0261L67.915 68.9771L68.4874 69.0977Z" fill="#FEDBA5"/>
<path d="M75.2307 70.1663L69.9567 63.4294L70.278 62.5564L75.2307 70.1663Z" fill="#FEDBA5"/>
<path d="M69.5021 68.8848L68.1053 68.4595L68.1494 68.3398L69.5021 68.8848Z" fill="#FEDBA5"/>
<path d="M68.9635 68.9746L67.9915 68.769L68.0212 68.688L68.9635 68.9746Z" fill="#FEDBA5"/>
<path d="M59.9954 70.1844L53.2315 68.8803C53.0186 68.8393 52.8031 68.9379 52.6951 69.1255L49.0388 75.4584L48.0421 74.9274L47.2937 74.44L51.9431 67.7998L59.9873 70.093L59.9954 70.1844Z" fill="#FEDBA5"/>
<path d="M58.0888 65.8377L58.0528 65.9723L49.0451 60.5786C48.7616 60.4089 48.4016 60.4377 48.1487 60.6501L39.6109 67.8141L38.4607 66.5343L37.6426 65.4462L47.7631 58.3596L58.0888 65.8377Z" fill="#FEDBA5"/>
<path d="M83.1867 93.2958L82.8784 95.8275L64.243 100.821L46.6044 77.3635L65.8747 98.8096C66.1969 99.1683 66.7045 99.2952 67.1572 99.13L83.1867 93.2958Z" fill="#FEDBA5"/>
<path d="M83.1476 89.7877L83.0697 92.0818L66.7532 98.0205L49.0988 78.373L68.0586 96.0895C68.3754 96.3856 68.8403 96.4595 69.2336 96.2763L83.1476 89.7877Z" fill="#FEDBA5"/>
<path d="M61.0867 71.4714L55.5076 71.3823C55.3321 71.3796 55.1741 71.4885 55.1143 71.6532L53.0884 77.2193L52.219 76.9358L51.553 76.6527L54.3281 70.7019L61.0673 71.3999L61.0867 71.4714Z" fill="#FEDBA5"/>
<path d="M61.6213 71.9537L56.6123 72.3119C56.4548 72.3231 56.3216 72.4329 56.2807 72.5855L54.901 77.7348L54.0991 77.549L53.4799 77.3469L55.5013 71.7939L61.5983 71.8911L61.6213 71.9537Z" fill="#FEDBA5"/>
<path d="M58.9546 68.2723L58.9447 68.3848L51.0004 65.3491C50.7507 65.2537 50.4676 65.3271 50.2957 65.5323L44.4925 72.4479L43.395 71.5884L42.5895 70.8355L49.6657 63.7593L58.9546 68.2723Z" fill="#FEDBA5"/>
<path d="M60.5418 70.8853L54.375 70.2468C54.181 70.2265 53.9956 70.3313 53.9133 70.5082L51.1319 76.473L50.1967 76.0751L49.4875 75.6967L53.1353 69.3792L60.5274 70.8039L60.5418 70.8853Z" fill="#FEDBA5"/>
<path d="M59.4586 69.2532V69.3549L52.098 67.2565C51.8662 67.1904 51.6183 67.2786 51.4806 67.4757L46.8199 74.1316L45.7687 73.4472L44.9871 72.8352L50.7763 65.9358L59.4586 69.2532Z" fill="#FEDBA5"/>
<path d="M68.2246 70.8832C68.2322 70.8495 68.2187 70.8148 68.1904 70.7946L67.4578 70.2816L67.5073 70.1389L68.41 70.8967L67.757 72.8997L68.2246 70.8832Z" fill="#FEDBA5"/>
<path d="M67.4272 72.3712L67.0686 72.5017L66.8202 72.1962L66.822 72.1921L67.0479 72.4252C67.0551 72.4324 67.0659 72.4347 67.0753 72.4302L67.3872 72.2848L67.4115 72.3321L67.4272 72.3712Z" fill="#FEDBA5"/>
<path d="M67.5113 72.6372L67.0469 72.7191L66.8107 72.2943L66.8138 72.2903L67.0384 72.6219C67.0456 72.6323 67.0586 72.6372 67.0708 72.6336L67.4812 72.5238L67.5005 72.5864L67.5113 72.6372Z" fill="#FEDBA5"/>
<path d="M67.4722 72.4955L67.0627 72.6053L66.817 72.2426L66.8202 72.239L67.0474 72.5185C67.0546 72.5275 67.0663 72.5306 67.0771 72.527L67.4367 72.3961L67.4587 72.451L67.4722 72.4955Z" fill="#FEDBA5"/>
<path d="M67.5564 72.9792H66.9745L66.7783 72.4113L66.7833 72.4072L66.9853 72.8586C66.9916 72.873 67.006 72.8815 67.0218 72.8802L67.5447 72.8343L67.5546 72.9148L67.5564 72.9792Z" fill="#FEDBA5"/>
<path d="M67.5397 72.7984L67.0182 72.8439L66.7972 72.3507L66.8017 72.3462L67.0182 72.7354C67.0249 72.7476 67.0384 72.7543 67.0524 72.7516L67.5177 72.6697L67.533 72.7408L67.5397 72.7984Z" fill="#FEDBA5"/>
<path d="M67.533 72.2772L67.3688 70.929C67.3661 70.9065 67.3499 70.8881 67.3278 70.8818L67.2567 70.8629L67.272 70.8179L67.4858 70.8953L67.533 72.2772Z" fill="#FEDBA5"/>
<path d="M67.7134 72.7115L67.9748 70.8669C67.9789 70.8359 67.964 70.8057 67.9375 70.79L67.3907 70.4745L67.429 70.3647L68.1418 70.8642L67.7134 72.7115Z" fill="#FEDBA5"/>
<path d="M67.4637 72.1706L67.2135 70.9871L67.2382 70.9155L67.3134 70.9362L67.4637 72.1706Z" fill="#FEDBA5"/>
<path d="M67.6806 70.8683L67.5987 72.4019L67.5478 70.8939C67.5469 70.8687 67.5307 70.8467 67.5069 70.8377L67.2922 70.7598L67.3138 70.6973L67.6806 70.8683Z" fill="#FEDBA5"/>
<path d="M67.5609 73.1097L67.5573 73.1807L66.9129 73.1245L66.7509 72.4769L66.7567 72.4729L66.9363 72.9922C66.9421 73.0084 66.9574 73.0197 66.9745 73.0197H67.5577L67.5609 73.1097Z" fill="#FEDBA5"/>
<path d="M67.3228 72.1716L67.0546 72.326L66.8206 72.123L66.8219 72.119L67.0276 72.2679C67.0343 72.2729 67.0433 72.2729 67.0501 72.2679L67.2787 72.1082L67.3043 72.1424L67.3228 72.1716Z" fill="#FEDBA5"/>
<path d="M67.3764 72.2638L67.065 72.4092L66.8184 72.1545L66.8202 72.1509L67.0407 72.3421C67.0474 72.3484 67.0578 72.3493 67.0654 72.3448L67.3341 72.1896L67.3593 72.2301L67.3764 72.2638Z" fill="#FEDBA5"/>
<path d="M67.6599 72.5459L67.7494 70.8718C67.7508 70.8439 67.735 70.8179 67.7098 70.8057L67.3368 70.632L67.3656 70.5479L67.8993 70.8561L67.6599 72.5459Z" fill="#FEDBA5"/>
<path d="M46.1579 50.4226L32.3015 56.8837L31.2318 54.7795L30.5343 53.0474L46.4598 47.251L57.4866 60.8252L57.3912 60.9908L47.3706 50.6462C47.0551 50.3209 46.5687 50.2309 46.1579 50.4226Z" fill="#FEDBA5"/>
<path d="M46.5854 54.2534L34.6689 61.1335L33.5448 59.3308L32.7834 57.8323L46.607 51.3865L57.5586 62.6918L57.4857 62.8475L47.6902 54.3592C47.3819 54.0919 46.9386 54.0496 46.5854 54.2534Z" fill="#FEDBA5"/>
<path d="M46.0557 46.1418L30.0929 51.9518L28.332 47.5809L46.697 42.6602L57.5879 58.7531L57.4659 58.9272L47.3765 46.5068C47.0588 46.1162 46.5287 45.9695 46.0557 46.1418Z" fill="#FEDBA5"/>
<path d="M47.2686 57.6544L37.1242 64.7577L35.9754 63.2295L35.1748 61.9456L47.0634 55.0818L57.7689 64.359L57.7158 64.5048L48.2676 57.6625C47.9701 57.447 47.5692 57.4438 47.2686 57.6544Z" fill="#FEDBA5"/>
<path d="M46.3568 41.3923L27.8375 46.3549L25.8427 41.4027L47.404 37.6011L57.9006 56.4687L57.7485 56.6496L47.7833 41.9247C47.4696 41.4612 46.8972 41.2479 46.3568 41.3923Z" fill="#FEDBA5"/>
<path d="M38.4607 66.5338L37.6426 65.4457L47.7631 58.3591L58.0888 65.8372L58.0528 65.9718L49.0451 60.5781C48.7616 60.4084 48.4016 60.4372 48.1487 60.6496L39.6109 67.8136L38.4607 66.5338Z" fill="#FEDBA5"/>
<path d="M47.1511 36.1648L25.2865 40.0204L22.9893 34.3171L48.6771 32.0693L58.4686 53.9704L58.2828 54.1558L48.6784 36.892C48.3765 36.3488 47.7631 36.0568 47.1511 36.1648Z" fill="#FEDBA5"/>
<path d="M49.1724 63.2669L42.0795 70.3597L40.9478 69.3022L40.1288 68.391L48.6468 61.2437L58.4915 67.1382L58.4694 67.2615L49.9703 63.1323C49.703 63.0027 49.3826 63.0567 49.1724 63.2669Z" fill="#FEDBA5"/>
<path d="M43.3949 71.5889L42.5894 70.836L49.6656 63.7598L58.9545 68.2728L58.9446 68.3853L51.0003 65.3496C50.7506 65.2542 50.4675 65.3276 50.2956 65.5328L44.4924 72.4484L43.3949 71.5889Z" fill="#FEDBA5"/>
<path d="M50.7763 65.9353L59.4586 69.2527V69.3544L52.098 67.2561C51.8662 67.1899 51.6183 67.2781 51.4806 67.4752L46.8199 74.1312L45.7687 73.4467L44.9871 72.8347L50.7763 65.9353Z" fill="#FEDBA5"/>
<path d="M51.9431 67.7993L59.9873 70.0925L59.9954 70.1839L53.2315 68.8798C53.0186 68.8388 52.8031 68.9374 52.6951 69.125L49.0388 75.4579L48.0421 74.9269L47.2937 74.4395L51.9431 67.7993Z" fill="#FEDBA5"/>
<path d="M53.1351 69.3792L60.5273 70.8039L60.5417 70.8853L54.3749 70.2468C54.1809 70.2265 53.9955 70.3313 53.9132 70.5082L51.1317 76.473L50.1966 76.0751L49.4874 75.6967L53.1351 69.3792Z" fill="#FEDBA5"/>
<path d="M54.3281 70.7019L61.0673 71.3999L61.0867 71.4714L55.5076 71.3823C55.3321 71.3796 55.1741 71.4885 55.1143 71.6532L53.0884 77.2193L52.219 76.9358L51.553 76.6527L54.3281 70.7019Z" fill="#FEDBA5"/>
<path d="M55.5013 71.7944L61.5983 71.8916L61.6213 71.9542L56.6123 72.3124C56.4548 72.3236 56.3216 72.4334 56.2807 72.586L54.901 77.7353L54.0991 77.5495L53.4799 77.3474L55.5013 71.7944Z" fill="#FEDBA5"/>
<path d="M56.6384 72.6818L62.1127 72.2908L62.1383 72.3452L57.6752 73.0589C57.5348 73.0814 57.4241 73.1903 57.3998 73.3303L56.5664 78.0553L55.8329 77.9513L55.2623 77.819L56.6384 72.6818Z" fill="#FEDBA5"/>
<path d="M57.7279 73.3882L62.6054 72.6079L62.6324 72.6547L58.6873 73.6452C58.5631 73.6762 58.4722 73.7824 58.4614 73.9098L58.0847 78.2118L57.4192 78.1758L56.8967 78.102L57.7279 73.3882Z" fill="#FEDBA5"/>
<path d="M58.7602 73.936L63.0721 72.8538L63.1 72.8934L59.6404 74.0908C59.5315 74.1286 59.4586 74.2308 59.4586 74.346V78.2322L58.8587 78.2524L58.3849 78.2272L58.7602 73.936Z" fill="#FEDBA5"/>
<path d="M59.7285 74.3462L63.5094 73.0381L63.5378 73.0714L60.53 74.416C60.435 74.4583 60.3779 74.5559 60.3869 74.6594L60.6915 78.1438L60.1556 78.209L59.7285 78.2234V74.3462Z" fill="#FEDBA5"/>
<path d="M60.629 74.6384L63.9163 73.1687L63.9442 73.1966L61.3531 74.638C61.2716 74.6834 61.2275 74.7757 61.2437 74.8675L61.7905 77.9675L61.3148 78.0679L60.9332 78.1142L60.629 74.6384Z" fill="#FEDBA5"/>
<path d="M61.4592 74.8291L64.2911 73.2537L64.3185 73.2766L62.1081 74.7724C62.0388 74.8192 62.0064 74.9052 62.0285 74.9862L62.7615 77.7231L62.343 77.8504L62.0046 77.922L61.4592 74.8291Z" fill="#FEDBA5"/>
<path d="M62.2184 74.9349L64.634 73.3L64.6601 73.3185L62.7957 74.8332C62.7372 74.8804 62.7152 74.9601 62.7413 75.0312L63.6134 77.427L63.248 77.5741L62.9501 77.665L62.2184 74.9349Z" fill="#FEDBA5"/>
<path d="M62.9078 74.9705L64.945 73.3154L64.9702 73.3298L63.4172 74.8337C63.3686 74.8814 63.3551 74.9543 63.3839 75.016L64.3537 77.0959L64.0378 77.2561L63.7777 77.3609L62.9078 74.9705Z" fill="#FEDBA5"/>
<path d="M63.5283 74.9485L65.2253 73.3047L65.2487 73.3159L63.9747 74.7861C63.9347 74.8324 63.9279 74.899 63.9585 74.9517L64.9913 76.7404L64.7208 76.9092L64.4958 77.0235L63.5283 74.9485Z" fill="#FEDBA5"/>
<path d="M64.0833 74.8801L65.4756 73.2732L65.4976 73.2813L64.4703 74.6992C64.4383 74.7438 64.4379 74.8041 64.4694 74.8491L65.5354 76.3719L65.3059 76.5442L65.1133 76.6644L64.0833 74.8801Z" fill="#FEDBA5"/>
<path d="M64.5751 74.7756L65.6974 73.2253L65.7176 73.2312L64.9081 74.583C64.8829 74.6257 64.8869 74.6797 64.9189 74.7175L65.9939 75.9991L65.8022 76.1715L65.6389 76.2943L64.5751 74.7756Z" fill="#FEDBA5"/>
<path d="M65.0079 74.6423L65.8926 73.1646L65.9111 73.1677L65.2914 74.4434C65.2721 74.4839 65.2802 74.5316 65.3117 74.5631L66.3764 75.6279L66.2175 75.798L66.0807 75.9208L65.0079 74.6423Z" fill="#FEDBA5"/>
<path d="M65.3855 74.4898L66.0627 73.0957L66.0798 73.0971L65.624 74.2896C65.61 74.3269 65.6208 74.3692 65.6514 74.3953L66.6896 75.2661L66.5609 75.4308L66.4475 75.5518L65.3855 74.4898Z" fill="#FEDBA5"/>
<path d="M65.7122 74.323L66.2099 73.0203H66.2252L65.9106 74.125C65.9003 74.1597 65.9138 74.197 65.9435 74.2177L66.9425 74.917L66.8394 75.075L66.7476 75.192L65.7122 74.323Z" fill="#FEDBA5"/>
<path d="M66.8913 71.9735L66.8728 71.9721L66.9219 71.8281L66.9385 71.8331L66.9538 71.8398L66.8913 71.9735Z" fill="#FEDBA5"/>
<path d="M66.9178 72.0037L66.8651 71.9938L66.8692 71.9821L66.8899 71.9844C66.8944 71.9844 66.8984 71.9826 66.9002 71.9785L66.9632 71.844L66.9844 71.853L67.0001 71.8615L66.9178 72.0037Z" fill="#FEDBA5"/>
<path d="M67.0091 71.8012L66.9506 71.7467L66.9533 71.7395L67.0091 71.8012Z" fill="#FEDBA5"/>
<path d="M66.9443 72.0393L66.8574 72.0145L66.861 72.0046L66.9155 72.015C66.92 72.0159 66.9249 72.0136 66.9272 72.0096L67.01 71.8669L67.032 71.8791L67.0491 71.8899L66.9443 72.0393Z" fill="#FEDBA5"/>
<path d="M67.0648 71.824L66.9631 71.7106L66.9685 71.6948L67.0648 71.824Z" fill="#FEDBA5"/>
<path d="M66.9713 72.0814L66.8507 72.0355L66.8539 72.0265L66.9412 72.0517C66.9466 72.0531 66.952 72.0513 66.9551 72.0468L67.0604 71.8965L67.0838 71.9122L67.1014 71.9257L66.9713 72.0814Z" fill="#FEDBA5"/>
<path d="M67.1248 71.8542L66.9803 71.6611L66.9884 71.6355L67.1248 71.8542Z" fill="#FEDBA5"/>
<path d="M65.9921 74.1475L66.3363 72.9401L66.3498 72.9392L66.1541 73.9544C66.1478 73.9864 66.1626 74.0183 66.191 74.035L67.1414 74.5835L67.0617 74.7329L66.9884 74.8454L65.9921 74.1475Z" fill="#FEDBA5"/>
<path d="M66.9961 72.1306L66.8435 72.0563L66.8462 72.0487L66.9659 72.0946C66.9718 72.0968 66.9781 72.095 66.9821 72.0905L67.1126 71.9348L67.1374 71.9542L67.1554 71.9708L66.9961 72.1306Z" fill="#FEDBA5"/>
<path d="M67.1887 71.8943L67.0028 71.596L67.0168 71.5559L67.1887 71.8943Z" fill="#FEDBA5"/>
<path d="M67.019 72.1869L66.8363 72.0771L66.8386 72.0708L66.9893 72.1441C66.9952 72.1473 67.0024 72.1459 67.0073 72.141L67.1671 71.9812L67.1927 72.0051L67.2112 72.0258L67.019 72.1869Z" fill="#FEDBA5"/>
<path d="M67.2548 71.9438L67.0334 71.5082L67.0546 71.4465L67.2548 71.9438Z" fill="#FEDBA5"/>
<path d="M67.0388 72.2522L66.8286 72.0996L66.8304 72.0947L67.01 72.2022C67.0163 72.2058 67.0244 72.2054 67.0302 72.2004L67.2224 72.0393L67.2485 72.0681L67.2669 72.0924L67.0388 72.2522Z" fill="#FEDBA5"/>
<path d="M66.2292 73.9689L66.443 72.8592L66.4551 72.8569L66.3593 73.7826C66.3561 73.8118 66.3719 73.8397 66.3984 73.8519L67.2939 74.2695L67.2341 74.4099L67.1774 74.5161L66.2292 73.9689Z" fill="#FEDBA5"/>
<path d="M67.0546 72.3255L66.8206 72.1225L66.8219 72.1185L67.0276 72.2674C67.0343 72.2724 67.0433 72.2724 67.0501 72.2674L67.2787 72.1077L67.3043 72.1419L67.3228 72.1711L67.0546 72.3255Z" fill="#FEDBA5"/>
<path d="M67.3237 72.0064L67.0748 71.3881L67.1068 71.2954L67.3237 72.0064Z" fill="#FEDBA5"/>
<path d="M67.065 72.4092L66.8184 72.1545L66.8202 72.1509L67.0407 72.3421C67.0474 72.3484 67.0578 72.3493 67.0654 72.3448L67.3341 72.1896L67.3593 72.2301L67.3764 72.2638L67.065 72.4092Z" fill="#FEDBA5"/>
<path d="M67.3934 72.0815L67.132 71.2224L67.181 71.0789L67.3934 72.0815Z" fill="#FEDBA5"/>
<path d="M66.4272 73.7897L66.5321 72.7781L66.5424 72.7754L66.5294 73.6124C66.5289 73.6389 66.5451 73.6628 66.5699 73.6718L67.4055 73.9755L67.3628 74.106L67.3205 74.2059L66.4272 73.7897Z" fill="#FEDBA5"/>
<path d="M67.3871 72.2853L67.4114 72.3326L67.4271 72.3717L67.0685 72.5022L66.8201 72.1967L66.8219 72.1926L67.0478 72.4257C67.055 72.4329 67.0658 72.4352 67.0752 72.4307L67.3871 72.2853Z" fill="#FEDBA5"/>
<path d="M67.4636 72.1706L67.2134 70.9871L67.2381 70.9155L67.3133 70.9362L67.4636 72.1706Z" fill="#FEDBA5"/>
<path d="M67.0631 72.6058L66.8174 72.2431L66.8205 72.2395L67.0478 72.519C67.055 72.528 67.0667 72.5311 67.0775 72.5275L67.437 72.3966L67.4591 72.4515L67.4726 72.496L67.0631 72.6058Z" fill="#FEDBA5"/>
<path d="M67.425 73.9175L66.5916 73.6142L66.606 72.6989L66.6154 72.6953L66.6694 73.4473C66.6712 73.4711 66.6874 73.4909 66.7104 73.4972L67.4835 73.7042L67.4556 73.8244L67.425 73.9175Z" fill="#FEDBA5"/>
<path d="M67.0469 72.7191L66.8107 72.2943L66.8138 72.2903L67.0384 72.6219C67.0456 72.6323 67.0586 72.6372 67.0708 72.6336L67.4812 72.5238L67.5005 72.5864L67.5113 72.6372L67.0469 72.7191Z" fill="#FEDBA5"/>
<path d="M66.7248 73.4432L66.6663 72.6215L66.6744 72.6179L66.7815 73.2875C66.7846 73.3087 66.8013 73.3253 66.822 73.3289L67.5312 73.454L67.5159 73.5643L67.4961 73.6498L66.7248 73.4432Z" fill="#FEDBA5"/>
<path d="M67.3272 70.8818L67.2561 70.8629L67.2714 70.8179L67.4852 70.8953L67.5324 72.2772L67.3682 70.929C67.3655 70.9065 67.3493 70.8881 67.3272 70.8818Z" fill="#FEDBA5"/>
<path d="M67.0186 72.8439L66.7976 72.3507L66.8021 72.3462L67.0186 72.7354C67.0253 72.7476 67.0388 72.7543 67.0528 72.7516L67.5181 72.6697L67.5334 72.7408L67.5401 72.7984L67.0186 72.8439Z" fill="#FEDBA5"/>
<path d="M66.831 73.2799L66.7135 72.5478L66.7207 72.5437L66.8692 73.1359C66.8741 73.1544 66.8899 73.1683 66.9092 73.1697L67.5545 73.2264L67.5496 73.3263L67.5383 73.4046L66.831 73.2799Z" fill="#FEDBA5"/>
<path d="M66.9744 72.9792L66.7782 72.4113L66.7831 72.4072L66.9852 72.8586C66.9915 72.873 67.0059 72.8815 67.0216 72.8802L67.5445 72.8343L67.5544 72.9148L67.5562 72.9792H66.9744Z" fill="#FEDBA5"/>
<path d="M66.9129 73.1245L66.7509 72.4769L66.7567 72.4729L66.9363 72.9922C66.9421 73.0084 66.9574 73.0197 66.9745 73.0197H67.5577L67.5609 73.1097L67.5573 73.1807L66.9129 73.1245Z" fill="#FEDBA5"/>
<path d="M67.5064 70.8372L67.2917 70.7593L67.3133 70.6968L67.6801 70.8678L67.5982 72.4014L67.5473 70.8934C67.5464 70.8682 67.5302 70.8462 67.5064 70.8372Z" fill="#FEDBA5"/>
<path d="M67.7094 70.8057L67.3363 70.632L67.3651 70.5479L67.8988 70.8561L67.6594 72.5459L67.749 70.8718C67.7503 70.8439 67.7346 70.8179 67.7094 70.8057Z" fill="#FEDBA5"/>
<path d="M68.0697 69.2451L67.8191 69.237L67.8267 69.2158L68.0697 69.2451Z" fill="#FEDBA5"/>
<path d="M67.9375 70.79L67.3907 70.4745L67.429 70.3647L68.1418 70.8642L67.7134 72.7115L67.9748 70.8669C67.9789 70.8359 67.964 70.8057 67.9375 70.79Z" fill="#FEDBA5"/>
<path d="M68.1904 70.7946L67.4578 70.2816L67.5073 70.1389L68.41 70.8967L67.757 72.8997L68.2246 70.8832C68.2322 70.8495 68.2187 70.8148 68.1904 70.7946Z" fill="#FEDBA5"/>
<path d="M68.4874 69.0977L67.897 69.0261L67.915 68.9771L68.4874 69.0977Z" fill="#FEDBA5"/>
<path d="M68.4706 70.8241L67.54 70.0434L67.5976 69.8773L67.6152 69.8701L68.7033 70.9582L67.7866 73.1119L68.4994 70.9254C68.5116 70.8889 68.4999 70.8489 68.4706 70.8241Z" fill="#FEDBA5"/>
<path d="M68.9635 68.9746L67.9915 68.769L68.0212 68.688L68.9635 68.9746Z" fill="#FEDBA5"/>
<path d="M68.7772 70.8841L67.708 69.8153L67.9231 69.7451L69.022 71.0551L67.7985 73.3505L68.7993 70.9993C68.8164 70.9597 68.8074 70.9142 68.7772 70.8841Z" fill="#FEDBA5"/>
<path d="M69.125 71.1096C69.1475 71.0677 69.1421 71.0164 69.1115 70.9804L68.032 69.6934L68.2763 69.6367L69.3662 71.1928L67.7894 73.6152L69.125 71.1096Z" fill="#FEDBA5"/>
<path d="M69.5021 68.8848L68.1053 68.4595L68.1494 68.3398L69.5021 68.8848Z" fill="#FEDBA5"/>
<path d="M67.7534 73.9077L69.4747 71.2635C69.5035 71.2194 69.5021 71.1622 69.472 71.119L68.4014 69.5899L68.6777 69.5508L69.7334 71.3791L67.7534 73.9077Z" fill="#FEDBA5"/>
<path d="M70.1074 68.8375L68.2426 68.0865L68.3038 67.9209L70.1074 68.8375Z" fill="#FEDBA5"/>
<path d="M67.6854 74.227L69.8463 71.4667C69.8823 71.4208 69.8868 71.3573 69.8576 71.3065L68.8208 69.5105L69.1304 69.4939L70.1217 71.6197L67.6854 74.227Z" fill="#FEDBA5"/>
<path d="M67.5789 74.575L70.2384 71.7292C70.2825 71.6815 70.2937 71.6118 70.2663 71.5528L69.2925 69.4644L69.6367 69.4761L70.5282 71.9254L67.5789 74.575Z" fill="#FEDBA5"/>
<path d="M70.781 68.8433L68.4077 67.6373L68.4896 67.415L70.781 68.8433Z" fill="#FEDBA5"/>
<path d="M67.4271 74.9489L70.646 72.0568C70.7 72.0082 70.7189 71.9321 70.6941 71.8642L69.8184 69.458L70.1982 69.5044L70.9479 72.3016L67.4271 74.9489Z" fill="#FEDBA5"/>
<path d="M67.2238 75.3484L71.0668 72.4589C71.1311 72.4103 71.1595 72.328 71.1388 72.2506L70.4021 69.5024L70.8184 69.5906L71.3773 72.7591L67.2238 75.3484Z" fill="#FEDBA5"/>
<path d="M71.5276 68.9153L68.6075 67.0951L68.716 66.8008L71.5276 68.9153Z" fill="#FEDBA5"/>
<path d="M66.9591 75.7718L71.4929 72.9454C71.5685 72.8981 71.6081 72.8095 71.5928 72.7217L71.0438 69.6086L71.4956 69.7463L71.8074 73.3076L66.9591 75.7718Z" fill="#FEDBA5"/>
<path d="M66.6257 76.2143L71.9177 73.5246C72.0059 73.4796 72.0581 73.3856 72.0496 73.2866L71.7436 69.7878L72.2305 69.984V73.9562L66.6257 76.2143Z" fill="#FEDBA5"/>
<path d="M72.3461 69.0675L68.8491 66.4381L68.9913 66.0525L72.3461 69.0675Z" fill="#FEDBA5"/>
<path d="M66.213 76.6714L72.3308 74.2068C72.4334 74.1658 72.5004 74.0664 72.5004 73.9561V70.0537L73.0202 70.3183L72.6354 74.7148L66.213 76.6714Z" fill="#FEDBA5"/>
<path d="M73.2375 69.3144L69.1443 65.6366L69.3297 65.1326L73.2375 69.3144Z" fill="#FEDBA5"/>
<path d="M65.7131 77.1372L72.7237 75.0019C72.8407 74.9659 72.9244 74.8629 72.9352 74.7405L73.3132 70.4214L73.8631 70.7643L73.0117 75.5937L65.7131 77.1372Z" fill="#FEDBA5"/>
<path d="M74.1996 69.6749L69.5066 64.652L69.75 63.9905L74.1996 69.6749Z" fill="#FEDBA5"/>
<path d="M65.1136 77.6053L73.0804 75.9205C73.2136 75.8926 73.3162 75.7859 73.3401 75.6523L74.1766 70.9075L74.7522 71.3404L73.3419 76.6036L65.1136 77.6053Z" fill="#FEDBA5"/>
<path d="M75.2305 70.1663L69.9565 63.4294L70.2778 62.5564L75.2305 70.1663Z" fill="#FEDBA5"/>
<path d="M64.4054 78.0648L73.3869 76.9713C73.5368 76.9529 73.661 76.8453 73.7001 76.6991L75.0857 71.5286L75.6806 72.0636L73.6101 77.7525L64.4054 78.0648Z" fill="#FEDBA5"/>
<path d="M76.3241 70.8106L70.5214 61.8948L70.9502 60.7297L76.3241 70.8106Z" fill="#FEDBA5"/>
<path d="M63.5765 78.5052L73.6241 78.1646C73.792 78.1587 73.9396 78.0516 73.9972 77.8937L76.0312 72.3047L76.6387 72.9545L73.7956 79.0511L63.5765 78.5052Z" fill="#FEDBA5"/>
<path d="M77.4721 71.6291L71.241 59.9395L71.8228 58.3586L77.4721 71.6291Z" fill="#FEDBA5"/>
<path d="M62.6171 78.9121L73.7712 79.5079C73.9575 79.5178 74.1312 79.4138 74.21 79.2446L77.0031 73.2551L77.612 74.0327L73.8752 80.506L62.6171 78.9121Z" fill="#FEDBA5"/>
<path d="M61.515 79.2689L73.8036 81.0091C74.0093 81.0379 74.2113 80.9393 74.3153 80.7598L77.9868 74.4004L78.5858 75.3206L73.8221 82.1237L61.515 79.2689Z" fill="#FEDBA5"/>
<path d="M78.6627 72.6477L72.1742 57.404L72.9792 55.2161L78.6627 72.6477Z" fill="#FEDBA5"/>
<path d="M60.2609 79.5581L73.6943 82.6739C73.9188 82.7261 74.1524 82.6366 74.2847 82.448L78.9647 75.7646L79.5384 76.841L73.607 83.9096L60.2609 79.5581Z" fill="#FEDBA5"/>
<path d="M79.8823 73.8886L73.4117 54.0418L74.5574 50.9287L79.8823 73.8886Z" fill="#FEDBA5"/>
<path d="M58.8442 79.7568L73.4116 84.5066C73.6551 84.5862 73.9224 84.5097 74.0871 84.3135L79.9141 77.3687L80.4451 78.6161L73.1952 85.866L58.8442 79.7568Z" fill="#FEDBA5"/>
<path d="M57.6819 108.158L80.9924 106.119L79.6851 109.364H53.2206L38.1771 72.0203L56.0966 107.278C56.3963 107.867 57.0236 108.216 57.6819 108.158Z" fill="#FEDBA5"/>
<path d="M81.113 75.3817L75.0996 49.4554L76.7912 44.8591L81.113 75.3817Z" fill="#FEDBA5"/>
<path d="M57.2572 79.8391L72.9222 86.5077C73.1841 86.6188 73.4874 86.5603 73.6885 86.3587L80.8107 79.2366L81.2778 80.668L72.5509 87.9909L57.2572 79.8391Z" fill="#FEDBA5"/>
<path d="M55.4932 79.7766L72.1868 88.6749C72.4658 88.8234 72.8069 88.7879 73.049 88.5845L81.6229 81.3903L82.0009 83.0207L71.632 90.281L55.4932 79.7766Z" fill="#FEDBA5"/>
<path d="M61.4461 105.114L82.1857 101.457L81.2686 104.469L57.5406 106.545L41.1241 74.2437L59.9557 104.449C60.2707 104.954 60.8602 105.217 61.4461 105.114Z" fill="#FEDBA5"/>
<path d="M82.3298 77.1527L77.4891 42.963L80.1207 35.8125L82.3298 77.1527Z" fill="#FEDBA5"/>
<path d="M82.3118 83.853L82.5724 85.694L70.3922 92.7261L53.546 79.5366L71.1617 91.0022C71.456 91.1939 71.8376 91.1876 72.1252 90.986L82.3118 83.853Z" fill="#FEDBA5"/>
<path d="M64.5823 102.089L82.8901 97.1835L82.3037 99.9555L61.1929 103.678L43.9403 76.0056L63.1936 101.61C63.5153 102.038 64.0648 102.228 64.5823 102.089Z" fill="#FEDBA5"/>
<path d="M82.8369 86.6461L82.9472 88.7089L68.7843 95.3131L51.4143 79.0825L69.8031 93.4794C70.11 93.7201 70.533 93.7498 70.871 93.5545L82.8369 86.6461Z" fill="#FEDBA5"/>
<path d="M69.2334 96.2763L83.1474 89.7877L83.0696 92.0818L66.753 98.0205L49.0986 78.373L68.0585 96.0895C68.3753 96.3856 68.8401 96.4595 69.2334 96.2763Z" fill="#FEDBA5"/>
<path d="M67.1571 99.1305L83.1865 93.2963L82.8783 95.828L64.2429 100.821L46.6042 77.364L65.8746 98.8101C66.1968 99.1688 66.7044 99.2957 67.1571 99.1305Z" fill="#FEDBA5"/>
<path d="M85.0541 33.5381L83.5052 79.2311L81.1792 35.7026C81.172 35.5725 81.1414 35.447 81.0901 35.3309C82.1638 34.8089 83.494 34.1955 85.0541 33.5381Z" fill="#FEDBA5"/>
<path d="M84.605 81.6464L86.2457 33.2403C86.2479 33.1764 86.2448 33.113 86.2367 33.0504C87.5912 32.5028 89.0924 31.9344 90.7259 31.3701L84.605 81.6464Z" fill="#FEDBA5"/>
<path d="M97.2289 29.3838L85.5883 84.4246L92.0917 31.0038C92.0957 30.9714 92.0984 30.939 92.1002 30.907C93.7004 30.3819 95.414 29.8671 97.2289 29.3838Z" fill="#FEDBA5"/>
<path d="M104.644 27.73L86.4077 87.5957L98.78 29.0948C98.7881 29.0561 98.7949 29.0179 98.7998 28.9792C100.655 28.5193 102.607 28.0963 104.644 27.73Z" fill="#FEDBA5"/>
<path d="M113.011 26.636L87.0076 91.1853L106.367 27.63C106.388 27.5639 106.403 27.4968 106.415 27.4298C108.533 27.0927 110.736 26.8209 113.011 26.636Z" fill="#FEDBA5"/>
</svg>
