<svg width="42" height="32" viewBox="0 0 42 32" fill="none" xmlns="http://www.w3.org/2000/svg">
<path d="M21 10.783V30.333M21 10.783C21 7.56265 21 5.95317 21.7085 4.72318C22.3316 3.64125 23.3253 2.76131 24.5483 2.21004C25.9388 1.58333 27.7592 1.58333 31.3996 1.58333H37.0329C38.2464 1.58333 38.8535 1.58333 39.317 1.79223C39.7247 1.97599 40.0553 2.26899 40.263 2.62963C40.4992 3.03963 40.5 3.57675 40.5 4.65018V21.5168C40.5 22.5903 40.4992 23.1263 40.263 23.5363C40.0553 23.8969 39.7254 24.1909 39.3177 24.3746C38.8547 24.5833 38.2488 24.5833 37.0377 24.5833H30.9002C28.8653 24.5833 27.8459 24.5833 26.9224 24.8314C26.1047 25.0511 25.3456 25.4108 24.6855 25.8907C23.9398 26.4329 23.3747 27.1818 22.2459 28.6796L21 30.333M21 10.783C21 7.56265 20.9996 5.95317 20.2912 4.72318C19.668 3.64125 18.6736 2.76131 17.4505 2.21004C16.0601 1.58333 14.2395 1.58333 10.5992 1.58333H4.96582C3.75237 1.58333 3.14626 1.58333 2.68278 1.79223C2.2751 1.97599 1.94388 2.26899 1.73615 2.62963C1.5 3.03963 1.5 3.57675 1.5 4.65018V21.5168C1.5 22.5903 1.5 23.1263 1.73615 23.5363C1.94388 23.8969 2.2751 24.1909 2.68278 24.3746C3.1458 24.5833 3.75119 24.5833 4.96226 24.5833H11.0999C13.1349 24.5833 14.1521 24.5833 15.0757 24.8314C15.8933 25.0511 16.6561 25.4108 17.3162 25.8907C18.0589 26.4307 18.6204 27.1758 19.74 28.6615L21 30.333" stroke="#5F0EAF" stroke-width="2" stroke-linecap="round" stroke-linejoin="round"/>
</svg>
