
<svg width="40" height="42" viewBox="0 0 40 42" fill="none" xmlns="http://www.w3.org/2000/svg">
<path d="M33.5 18L38.5 27L33.5 28V34H30.5L24.5 33L23.5 40H8.5L6.5 29.619C3.42 26.703 1.5 22.576 1.5 18C1.5 9.163 8.663 2 17.5 2C26.337 2 33.5 9.163 33.5 18Z" stroke="#5F0EAF" stroke-width="3" stroke-linecap="round" stroke-linejoin="round"/>
<path d="M12.5 16C12.5 15.0111 12.7932 14.0444 13.3427 13.2221C13.8921 12.3999 14.673 11.759 15.5866 11.3806C16.5002 11.0022 17.5055 10.9031 18.4755 11.0961C19.4454 11.289 20.3363 11.7652 21.0355 12.4645C21.7348 13.1637 22.211 14.0546 22.4039 15.0245C22.5969 15.9945 22.4978 16.9998 22.1194 17.9134C21.741 18.827 21.1001 19.6079 20.2779 20.1573C19.4556 20.7068 18.4889 21 17.5 21V24M17.5 30V30.5" stroke="#5F0EAF" stroke-width="2" stroke-linecap="round" stroke-linejoin="round"/>
</svg>
